<?xml version="1.0" encoding="UTF-8" standalone="no"?>
<!-- Created with Inkscape (http://www.inkscape.org/) -->

<svg
   version="1.1"
   id="svg2"
   xml:space="preserve"
   width="1587.4"
   height="2245.04"
   viewBox="0 0 1587.4 2245.04"
   sodipodi:docname="banner.svg"
   inkscape:version="1.2.2 (b0a84865, 2022-12-01)"
   inkscape:export-filename="banner_test.svg"
   inkscape:export-xdpi="114.9"
   inkscape:export-ydpi="114.9"
   xmlns:inkscape="http://www.inkscape.org/namespaces/inkscape"
   xmlns:sodipodi="http://sodipodi.sourceforge.net/DTD/sodipodi-0.dtd"
   xmlns="http://www.w3.org/2000/svg"
   xmlns:svg="http://www.w3.org/2000/svg"><defs
     id="defs6"><clipPath
       clipPathUnits="userSpaceOnUse"
       id="clipPath18"><path
         d="M 0,0 H 1190.55 V 1683.78 H 0 Z"
         id="path16" /></clipPath><clipPath
       clipPathUnits="userSpaceOnUse"
       id="clipPath28"><path
         d="M 0,0 H 1190.55 V 1683.779 H 0 Z"
         id="path26" /></clipPath><clipPath
       clipPathUnits="userSpaceOnUse"
       id="clipPath50"><path
         d="M 0,0 H 1190.55 V 1683.78 H 0 Z"
         id="path48" /></clipPath><clipPath
       clipPathUnits="userSpaceOnUse"
       id="clipPath74"><path
         d="M 0,0 H 1190.55 V 1683.779 H 0 Z"
         id="path72" /></clipPath><clipPath
       clipPathUnits="userSpaceOnUse"
       id="clipPath86"><path
         d="M 0,0 H 1190.55 V 1683.78 H 0 Z"
         id="path84" /></clipPath><clipPath
       clipPathUnits="userSpaceOnUse"
       id="clipPath126"><path
         d="M 0,0 H 1190.55 V 1683.779 H 0 Z"
         id="path124" /></clipPath><clipPath
       clipPathUnits="userSpaceOnUse"
       id="clipPath138"><path
         d="M 0,0 H 1190.55 V 1683.78 H 0 Z"
         id="path136" /></clipPath><clipPath
       clipPathUnits="userSpaceOnUse"
       id="clipPath206"><path
         d="M 0,0 H 1190.55 V 1683.779 H 0 Z"
         id="path204" /></clipPath><clipPath
       clipPathUnits="userSpaceOnUse"
       id="clipPath218"><path
         d="M 0,0 H 1190.55 V 1683.78 H 0 Z"
         id="path216" /></clipPath><clipPath
       clipPathUnits="userSpaceOnUse"
       id="clipPath266"><path
         d="M 0,0 H 1190.55 V 1683.779 H 0 Z"
         id="path264" /></clipPath><clipPath
       clipPathUnits="userSpaceOnUse"
       id="clipPath278"><path
         d="M 0,0 H 1190.55 V 1683.78 H 0 Z"
         id="path276" /></clipPath><clipPath
       clipPathUnits="userSpaceOnUse"
       id="clipPath330"><path
         d="M 0,0 H 1190.55 V 1683.779 H 0 Z"
         id="path328" /></clipPath><clipPath
       clipPathUnits="userSpaceOnUse"
       id="clipPath432"><path
         d="M 0,0 H 1190.55 V 1683.78 H 0 Z"
         id="path430" /></clipPath><clipPath
       clipPathUnits="userSpaceOnUse"
       id="clipPath444"><path
         d="m 1038.682,170.229 h 88.583 v 88.582 h -88.583 z"
         id="path442" /></clipPath><clipPath
       clipPathUnits="userSpaceOnUse"
       id="clipPath454"><path
         d="M 0,0 H 1190.55 V 1683.78 H 0 Z"
         id="path452" /></clipPath><clipPath
       clipPathUnits="userSpaceOnUse"
       id="clipPath534"><g
         inkscape:label="Clip"
         id="use536"
         style="display:inline" /></clipPath><clipPath
       clipPathUnits="userSpaceOnUse"
       id="clipPath2241"><g
         inkscape:label="Clip"
         id="use2243" /></clipPath><clipPath
       clipPathUnits="userSpaceOnUse"
       id="clipPath2306"><g
         inkscape:label="Clip"
         id="use2308" /></clipPath></defs><sodipodi:namedview
     id="namedview4"
     pagecolor="#ffffff"
     bordercolor="#666666"
     borderopacity="1.0"
     inkscape:pageshadow="2"
     inkscape:pageopacity="0"
     inkscape:pagecheckerboard="0"
     showgrid="true"
     inkscape:zoom="0.52918999"
     inkscape:cx="2103.2144"
     inkscape:cy="684.06434"
     inkscape:window-width="3440"
     inkscape:window-height="1440"
     inkscape:window-x="0"
     inkscape:window-y="0"
     inkscape:window-maximized="0"
     inkscape:current-layer="svg2"
     inkscape:showpageshadow="2"
     inkscape:deskcolor="#d1d1d1"
     showguides="true"><sodipodi:guide
       position="-843.06092,2800.8357"
       orientation="0,-1"
       id="guide402"
       inkscape:locked="false" /></sodipodi:namedview><path
     id="path8968"
     style="display:inline;fill:#9b9894;fill-opacity:1;fill-rule:nonzero;stroke:none"
     d="M 0 1683.7786 L 0 1196.1907 C 5.4336737 1203.3546 10.905703 1210.4888 16.605469 1217.4309 C 23.67083 1226.0363 30.936837 1234.4686 38.39795 1242.72 C 45.859063 1250.9714 53.515568 1259.0423 61.357912 1266.9251 C 69.200255 1274.8079 77.229427 1282.5026 85.438479 1290.0022 C 93.647531 1297.5018 102.03593 1304.8057 110.59717 1311.9075 C 119.15841 1319.0093 127.89261 1325.909 136.79151 1332.5984 C 145.69041 1339.2878 154.75403 1345.7671 163.97608 1352.0295 C 173.19812 1358.292 182.57774 1364.3376 192.1084 1370.1585 C 201.63907 1375.9793 211.32124 1381.575 221.146 1386.9397 C 230.97076 1392.3044 240.93913 1397.4369 251.04346 1402.3308 C 261.1478 1407.2247 271.38745 1411.8793 281.75684 1416.2878 C 292.12623 1420.6964 302.6252 1424.8598 313.24513 1428.7683 C 323.86505 1432.6768 334.60697 1436.3314 345.4629 1439.7253 C 356.31883 1443.1193 367.2888 1446.2517 378.36622 1449.1165 C 389.44364 1451.9813 400.62823 1454.5782 411.91261 1456.8992 C 423.19699 1459.2202 434.58129 1461.2654 446.05812 1463.0281 C 457.53494 1464.7907 469.10406 1466.271 480.7588 1467.4607 C 492.41355 1468.6504 504.15404 1469.5495 515.97218 1470.1516 C 527.79032 1470.7538 539.68583 1471.0584 551.65285 1471.0584 C 563.61987 1471.0584 575.51683 1470.7538 587.33498 1470.1516 C 599.15312 1469.5495 610.89214 1468.6504 622.54689 1467.4607 C 634.20164 1466.271 645.77221 1464.7907 657.24904 1463.0281 C 668.72587 1461.2654 680.11016 1459.2202 691.39455 1456.8992 C 702.67894 1454.5782 713.86351 1451.9813 724.94094 1449.1165 C 736.01836 1446.2517 746.98832 1443.1193 757.84426 1439.7253 C 768.7002 1436.3314 779.4421 1432.6768 790.06203 1428.7683 C 800.68196 1424.8598 811.17945 1420.6964 821.54885 1416.2878 C 831.91825 1411.8793 842.15935 1407.2247 852.26369 1402.3308 C 862.36804 1397.4369 872.33638 1392.3044 882.16115 1386.9397 C 891.98593 1381.575 901.66661 1375.9793 911.19729 1370.1585 C 920.72796 1364.3376 930.10902 1358.292 939.33108 1352.0295 C 948.55313 1345.7671 957.61673 1339.2878 966.51565 1332.5984 C 975.41456 1325.909 984.14874 1319.0093 992.70999 1311.9075 C 1001.2712 1304.8057 1009.6596 1297.5018 1017.8687 1290.0022 C 1026.0777 1282.5026 1034.1069 1274.8079 1041.9492 1266.9251 C 1049.7916 1259.0423 1057.4466 1250.9714 1064.9077 1242.72 C 1072.3689 1234.4686 1079.6363 1226.0363 1086.7017 1217.4309 C 1093.7671 1208.8255 1100.6306 1200.0466 1107.2857 1191.1018 C 1110.8718 1186.2818 1114.2384 1181.2924 1117.7022 1176.3772 L 1190.5518 1176.3772 L 1190.5518 1683.7786 L 0 1683.7786 z "
     transform="matrix(1.3333333,0,0,-1.3333333,0,2245.04)" /><path
     id="path8963"
     style="display:inline;fill:#e10019;fill-opacity:1;fill-rule:nonzero;stroke:none"
     d="M 1190.5454 1045.3879 L 1190.5454 1683.783 L 465.05514 1683.783 C 414.30626 1615.9996 379.81359 1534.7565 367.79537 1446.1003 C 371.33116 1447.0756 374.80609 1448.1963 378.36422 1449.1165 C 389.44163 1451.9813 400.62624 1454.5782 411.91061 1456.8992 C 423.19498 1459.2202 434.5793 1461.2654 446.05612 1463.0281 C 457.53293 1464.7907 469.10207 1466.271 480.7568 1467.4607 C 492.41154 1468.6504 504.15205 1469.5495 515.97018 1470.1516 C 527.78831 1470.7538 539.68384 1471.0584 551.65085 1471.0584 C 563.61785 1471.0584 575.51484 1470.7538 587.33298 1470.1516 C 599.1511 1469.5495 610.89015 1468.6504 622.54489 1467.4607 C 634.19963 1466.271 645.77022 1464.7907 657.24704 1463.0281 C 668.72386 1461.2654 680.10817 1459.2202 691.39255 1456.8992 C 702.67693 1454.5782 713.86152 1451.9813 724.93894 1449.1165 C 736.01635 1446.2517 746.98633 1443.1193 757.84226 1439.7253 C 768.69819 1436.3315 779.44011 1432.6768 790.06003 1428.7683 C 800.67995 1424.8598 811.17746 1420.6964 821.54685 1416.2878 C 831.91624 1411.8794 842.15736 1407.2247 852.26169 1402.3308 C 862.36603 1397.4369 872.33439 1392.3044 882.15915 1386.9397 C 891.98393 1381.575 901.66462 1375.9792 911.19529 1370.1585 C 920.72595 1364.3376 930.10703 1358.292 939.32908 1352.0295 C 948.55112 1345.7672 957.61474 1339.2878 966.51365 1332.5984 C 975.41255 1325.909 984.14674 1319.0093 992.70799 1311.9075 C 1001.2692 1304.8057 1009.6576 1297.5018 1017.8667 1290.0022 C 1026.0757 1282.5026 1034.105 1274.8078 1041.9472 1266.9251 C 1049.7896 1259.0423 1057.4446 1250.9714 1064.9057 1242.72 C 1072.3669 1234.4686 1079.6343 1226.0363 1086.6997 1217.4309 C 1093.7651 1208.8255 1100.6286 1200.0466 1107.2837 1191.1018 C 1113.9388 1182.157 1120.3849 1173.0462 1126.6152 1163.7766 C 1132.8455 1154.507 1138.8609 1145.0776 1144.6518 1135.4978 C 1150.4428 1125.918 1156.0095 1116.1876 1161.3467 1106.3123 C 1166.6838 1096.4368 1171.7914 1086.416 1176.6601 1076.2595 C 1181.5289 1066.103 1186.1595 1055.8108 1190.5454 1045.3879 z "
     transform="matrix(1.3333333,0,0,-1.3333333,0.00266667,2245.04)" /><path
     style="display:inline;fill:#90275a;fill-opacity:1;fill-rule:nonzero;stroke:none"
     d="m 127.88208,1325.8128 c -3.63628,14.9964 -5.56438,30.6691 -5.56438,46.7962 0,108.3799 87.07411,196.239 194.482,196.239 73.08098,0 136.74824,-40.6716 169.981,-100.8057 0,0 -84.32806,-5.0266 -190.15389,-45.8696 -94.79786,-36.5867 -168.74473,-96.3599 -168.74473,-96.3599 z"
     transform="matrix(1.3333333,0,0,-1.3333333,0.00266667,2245.04)"
     id="path30"
     sodipodi:nodetypes="csscsc" /><path
     d="m 393.9655,1552.795 v 0 c -12.355,-33.941 -21.258,-69.59 -26.273,-106.53 38.462,10.611 78.26,17.976 119.085,21.784 -20.765,37.571 -53.412,67.544 -92.812,84.746"
     style="display:inline;fill:#902b2f;fill-opacity:1;fill-rule:nonzero;stroke:none"
     id="path40"
     inkscape:label="Dunkelrot"
     transform="matrix(1.3333333,0,0,-1.3333333,0.00266667,2245.04)" /><path
     id="path8775"
     style="display:inline;fill:#6a6460;stroke-width:0.75"
     inkscape:label="Dunkelgrau"
     d="M 127.02393,-1683.783 H -0.00146484 v 487.5938 c 5.43398264,-7.1645 10.90673884,-14.299 16.60693384,-21.2417 7.065354,-8.6054 14.331376,-17.0377 21.792481,-25.2891 7.461106,-8.2514 15.117626,-16.3223 22.959962,-24.2051 7.842335,-7.8827 15.871523,-15.5775 24.080567,-23.0771 8.209043,-7.4996 16.597461,-14.8035 25.158691,-21.9053 4.28062,-3.5509 8.60378,-7.0513 12.96973,-10.5 4.36593,-3.4487 8.77516,-6.8462 13.22461,-10.1909 4.44944,-3.3447 8.93957,-6.6371 13.4707,-9.876 4.53114,-3.2388 9.10285,-6.4239 13.71387,-9.5551 4.61101,-3.1313 9.2621,-6.2083 13.95117,-9.23 4.68909,-3.0218 9.41583,-5.9885 14.18115,-8.899 4.76534,-2.9103 9.56844,-5.7647 14.40821,-8.562 4.83975,-2.7973 9.71702,-5.5369 14.62939,-8.2192 4.91238,-2.6823 9.86009,-5.3065 14.84326,-7.8721 4.98319,-2.5655 10.00204,-5.0721 15.0542,-7.519 1.54388,-0.7478 3.11239,-1.4519 4.6626,-2.1885 A 374.07471,379.55566 0 0 0 127.02393,-1683.783 Z"
     transform="matrix(1.3333333,0,0,1.3333333,0,2245.04)" /><path
     d="m 226.5767,1546.498 c -61.98,-32.809 -104.259,-98.366 -104.259,-173.889 0,-16.133 1.93,-31.814 5.569,-46.816 39.611,30.787 82.622,57.353 128.38,79.042 -0.91,50.175 -11.393,97.992 -29.69,141.663"
     style="display:inline;fill:#570d33;fill-opacity:1;fill-rule:nonzero;stroke:none"
     id="path38"
     inkscape:label="DunkelViolet"
     transform="matrix(1.3333333,0,0,-1.3333333,0.00266667,2245.04)" /><path
     id="path9029"
     style="display:inline;fill:#90275a;fill-opacity:1;stroke-width:1.63461"
     inkscape:label="Violeterkreis 2"
     d="M 1587.323,991.533 A 360.70152,358.75002 0 0 1 1229.1176,633.85321 360.70152,358.75002 0 0 1 1587.338,274.05" /><path
     d="m 1188.425,1478.268 c -99.949,0 -186.995,-55.694 -232.3057,-138.006 102.7717,-74.31 184.4907,-176.206 234.4317,-294.888 v 432.886 c -0.706,0.01 -1.419,0.01 -2.126,0.01"
     style="display:inline;fill:#902b2f;fill-opacity:1;fill-rule:nonzero;stroke:none"
     id="path2084"
     inkscape:label="path2084"
     transform="matrix(1.3333333,0,0,-1.3333333,0,2245.04)" /><g
     id="g324"
     style="display:inline"
     inkscape:label="Schrift"
     transform="matrix(1.3333333,0,0,-1.3333333,0,2245.04)"><g
       id="g326"
       clip-path="url(#clipPath330)"
       style="display:inline"
       inkscape:label="SchriftSchnittmasske"><path
         d="m 639.1393,1591.429 -3.405,5.898 c -0.797,1.33 -2.244,2.208 -3.894,2.231 h -46.245 l 7.466,12.925 c 0.801,1.43 0.772,3.109 0.036,4.456 l 0.007,-0.01 -3.42,5.922 c -0.391,0.76 -0.985,1.412 -1.773,1.868 -0.79,0.459 -1.657,0.647 -2.512,0.612 h -6.805 c -1.549,-0.035 -3.033,-0.836 -3.869,-2.261 l -7.471,-12.918 -23.108,40.026 v -0.012 c -0.83,1.424 -2.302,2.224 -3.827,2.272 h -6.849 c -0.848,0.042 -1.713,-0.148 -2.51,-0.617 -0.782,-0.439 -1.376,-1.103 -1.78,-1.84 l -3.405,-5.91 c -0.735,-1.359 -0.783,-3.049 0.022,-4.481 l 23.12,-40.037 h -28.892 c -1.657,-0.023 -3.099,-0.901 -3.899,-2.231 l -3.407,-5.898 c -0.456,-0.712 -0.712,-1.555 -0.723,-2.471 0,-0.903 0.272,-1.757 0.735,-2.47 l 3.413,-5.925 h 0.005 c 0.807,-1.292 2.232,-2.172 3.876,-2.182 v -0.013 h 28.892 l -23.107,-40.044 c -0.818,-1.422 -0.77,-3.12 -0.03,-4.461 h -0.005 l 3.405,-5.922 c 0.404,-0.737 0.998,-1.389 1.78,-1.851 0.797,-0.451 1.662,-0.642 2.51,-0.606 h 6.849 -0.007 c 1.532,0.047 3.004,0.854 3.834,2.266 l 23.108,40.02 7.471,-12.925 c 0.836,-1.412 2.32,-2.219 3.869,-2.255 h 6.818 c 0.842,-0.047 1.702,0.156 2.499,0.617 0.788,0.452 1.382,1.093 1.779,1.863 l 3.414,5.912 h -0.007 c 0.736,1.352 0.765,3.037 -0.036,4.461 h 0.006 l -7.46,12.925 h 46.233 v 0.013 c 1.638,0.01 3.067,0.89 3.876,2.182 l 3.411,5.925 c 0.463,0.713 0.736,1.567 0.736,2.47 0,0.899 -0.273,1.759 -0.724,2.471"
         style="fill:#ffffff;fill-opacity:1;fill-rule:nonzero;stroke:none"
         id="path386"
         inkscape:label="HSRM_Logo" /><path
         d="m 661.4404,1560.174 v -15.014 h -17.541 v 15.014 h -3.931 v -34.642 h 3.931 v 16.186 h 17.541 v -16.186 h 3.939 v 34.642 z"
         style="fill:#ffffff;fill-opacity:1;fill-rule:nonzero;stroke:none"
         id="path388"
         inkscape:label="H" /><path
         d="m 672.0966,1534.325 v 6.326 c 0,6.409 4.664,9.756 10.16,9.756 6.017,0 10.247,-3.536 10.247,-9.708 v -5.981 c 0,-6.361 -4.563,-9.816 -10.105,-9.816 -5.975,0 -10.302,3.252 -10.302,9.423 m 16.711,0.25 v 6.457 c 0,3.69 -2.184,6.313 -6.551,6.313 -4.035,0 -6.515,-2.374 -6.515,-6.504 v -6.409 c 0,-3.846 2.337,-6.421 6.657,-6.421 4.035,0 6.409,2.184 6.409,6.564"
         style="fill:#ffffff;fill-opacity:1;fill-rule:nonzero;stroke:none"
         id="path390"
         inkscape:label="o" /><path
         d="m 697.7206,1534.764 v 5.449 c 0,6.456 4.177,10.193 10.1,10.193 5.589,0 9.625,-3.155 9.625,-8.45 v -0.627 h -3.502 v 0.818 c 0,2.73 -2.041,5.258 -6.07,5.258 -4.03,0 -6.415,-2.777 -6.415,-6.861 v -5.875 c 0,-3.941 2.089,-6.656 6.462,-6.656 4.029,0 6.023,2.48 6.023,5.196 v 0.689 h 3.502 v -0.546 c 0,-5.244 -3.888,-8.45 -9.525,-8.45 -6.07,0 -10.2,3.548 -10.2,9.862"
         style="fill:#ffffff;fill-opacity:1;fill-rule:nonzero;stroke:none"
         id="path392"
         inkscape:label="c" /><path
         d="m 723.1897,1560.222 h 3.596 v -14.527 h 0.142 c 1.655,3.157 4.765,4.759 7.876,4.759 5.198,0 7.82,-3.395 7.82,-8.057 v -16.866 h -3.643 v 15.5 c 0,4.332 -2.036,6.266 -5.3,6.266 -3.691,0 -6.895,-2.766 -6.895,-7.382 v -14.384 h -3.596 z"
         style="fill:#ffffff;fill-opacity:1;fill-rule:nonzero;stroke:none"
         id="path394"
         inkscape:label="h" /><path
         d="m 748.2255,1528.842 2.475,2.041 c 1.946,-1.993 4.277,-3.014 7.387,-3.014 2.913,0 5.929,1.507 5.929,4.368 0,2.728 -1.697,3.5 -5.057,4.13 l -2.811,0.581 c -4.232,0.83 -6.855,2.776 -6.855,6.279 0,4.224 3.448,7.286 8.746,7.286 3.691,0 6.606,-0.878 8.505,-3.062 l -2.482,-1.898 c -1.553,1.364 -3.453,2.136 -6.219,2.136 -2.966,0 -5.007,-1.602 -5.007,-3.928 0,-2.339 1.993,-3.11 5.298,-3.799 l 3.651,-0.772 c 3.588,-0.782 5.969,-2.728 5.969,-6.313 0,-5.304 -4.901,-7.927 -9.62,-7.927 -3.981,0 -7.625,1.068 -9.909,3.892"
         style="fill:#ffffff;fill-opacity:1;fill-rule:nonzero;stroke:none"
         id="path396"
         inkscape:label="s" /><path
         d="m 772.6736,1534.764 v 5.449 c 0,6.456 4.184,10.193 10.107,10.193 5.589,0 9.623,-3.155 9.623,-8.45 v -0.627 h -3.5 v 0.818 c 0,2.73 -2.041,5.258 -6.077,5.258 -4.03,0 -6.409,-2.777 -6.409,-6.861 v -5.875 c 0,-3.941 2.09,-6.656 6.456,-6.656 4.036,0 6.03,2.48 6.03,5.196 v 0.689 h 3.5 v -0.546 c 0,-5.244 -3.891,-8.45 -9.53,-8.45 -6.07,0 -10.2,3.548 -10.2,9.862"
         style="fill:#ffffff;fill-opacity:1;fill-rule:nonzero;stroke:none"
         id="path398"
         inkscape:label="c" /><path
         d="m 798.1489,1560.222 h 3.596 v -14.527 h 0.142 c 1.65,3.157 4.759,4.759 7.869,4.759 5.198,0 7.822,-3.395 7.822,-8.057 v -16.866 h -3.645 v 15.5 c 0,4.332 -2.041,6.266 -5.293,6.266 -3.691,0 -6.895,-2.766 -6.895,-7.382 v -14.384 h -3.596 z"
         style="fill:#ffffff;fill-opacity:1;fill-rule:nonzero;stroke:none"
         id="path400"
         inkscape:label="h" /><path
         d="m 824.686,1533.067 v 16.854 h 3.643 v -15.49 c 0,-4.33 2.089,-6.218 5.348,-6.218 3.643,0 6.848,2.765 6.848,7.382 v 14.326 h 3.595 v -24.391 h -3.5 v 4.237 h -0.095 c -1.698,-3.216 -4.761,-4.817 -8.024,-4.817 -5.192,0 -7.815,3.501 -7.815,8.117"
         style="fill:#ffffff;fill-opacity:1;fill-rule:nonzero;stroke:none"
         id="path402"
         inkscape:label="u" /><path
         d="m 851.6207,1531.513 v 28.709 h 3.643 v -28.852 c 0,-1.708 0.915,-3.014 3.157,-3.014 0.973,0 1.793,0.143 2.67,0.236 v -2.763 c -1.221,-0.392 -2.718,-0.582 -3.891,-0.582 -4.666,0 -5.579,3.441 -5.579,6.266"
         style="fill:#ffffff;fill-opacity:1;fill-rule:nonzero;stroke:none"
         id="path404"
         inkscape:label="l" /><path
         d="m 865.1735,1534.812 v 5.15 c 0,6.707 4.57,10.444 10.445,10.444 5.399,0 9.671,-3.251 9.671,-9.566 v -3.832 h -16.377 v -2.529 c 0,-3.987 2.73,-6.467 7.002,-6.467 2.813,0 4.854,1.459 6.171,3.109 l 2.766,-1.65 c -2.184,-3.405 -5.685,-4.568 -9.187,-4.568 -5.968,0 -10.491,3.204 -10.491,9.909 m 16.521,4.711 v 1.412 c 0,3.693 -2.184,6.469 -6.266,6.469 -3.941,0 -6.516,-2.919 -6.516,-6.812 v -1.069 z"
         style="fill:#ffffff;fill-opacity:1;fill-rule:nonzero;stroke:none"
         id="path406"
         inkscape:label="e" /><path
         d="m 905.4792,1560.175 h 13.695 c 6.517,0 11.76,-3.786 11.76,-10.884 0,-4.13 -2.182,-8.402 -6.846,-10.052 l 8.591,-13.708 h -7.038 l -8.116,12.971 h -5.59 v -12.971 h -6.456 z m 12.923,-16.224 c 3.739,0 6.221,1.792 6.221,5.388 0,4.082 -2.72,5.4 -6.316,5.4 h -6.372 v -10.788 z"
         style="fill:#ffffff;fill-opacity:1;fill-rule:nonzero;stroke:none"
         id="path408"
         inkscape:label="R" /><path
         d="m 937.558,1560.174 h 5.922 v -12.83 h 0.155 c 1.649,2.387 4.271,3.548 6.846,3.548 5.591,0 8.7,-3.488 8.7,-9.423 v -15.939 h -5.934 v 14.432 c 0,3.739 -1.602,5.732 -4.616,5.732 -3.252,0 -5.151,-1.993 -5.151,-6.218 v -13.946 h -5.922 z"
         style="fill:#ffffff;fill-opacity:1;fill-rule:nonzero;stroke:none"
         id="path410"
         inkscape:label="h" /><path
         d="m 964.8793,1535.108 v 4.854 c 0,7.003 5.245,10.884 11.416,10.884 5.388,0 10.741,-3.157 10.741,-9.768 v -4.807 h -15.986 v -1.364 c 0,-3.158 2.575,-4.997 5.732,-4.997 1.993,0 4.082,1.304 5.388,3.205 l 4.569,-2.623 c -1.946,-3.894 -5.875,-5.543 -10.253,-5.543 -6.113,0 -11.607,3.359 -11.607,10.159 m 16.223,5.293 v 0.677 c 0,3.405 -2.374,4.771 -4.807,4.771 -2.527,0 -5.245,-1.366 -5.245,-5.102 v -0.346 z"
         style="fill:#ffffff;fill-opacity:1;fill-rule:nonzero;stroke:none"
         id="path412"
         inkscape:label="e" /><path
         d="m 993.125,1560.518 h 5.922 v -6.314 h -5.922 z m 0,-10.112 h 5.922 v -24.875 h -5.922 z"
         style="fill:#ffffff;fill-opacity:1;fill-rule:nonzero;stroke:none"
         id="path414"
         inkscape:label="i" /><path
         d="m 1006.204,1550.407 h 5.78 v -3.062 h 0.095 c 1.65,2.385 4.272,3.548 7.038,3.548 5.589,0 8.698,-3.488 8.698,-9.422 v -15.939 h -5.922 v 14.432 c 0,3.738 -1.603,5.732 -4.616,5.732 -3.253,0 -5.151,-1.994 -5.151,-6.219 v -13.945 h -5.922 z"
         style="fill:#ffffff;fill-opacity:1;fill-rule:nonzero;stroke:none"
         id="path416"
         inkscape:label="n" /><path
         d="m 1035.945,1560.174 h 7.881 l 8.936,-21.671 h 0.095 l 8.698,21.671 h 7.87 v -34.644 h -6.22 v 23.085 h -0.093 l -7.87,-19.096 h -5.103 l -7.868,19.001 h -0.107 v -22.99 h -6.219 z"
         style="fill:#ffffff;fill-opacity:1;fill-rule:nonzero;stroke:none"
         id="path418"
         inkscape:label="M" /><path
         d="m 1075.275,1532.581 c 0,4.807 4.369,7.678 9.187,7.678 h 6.599 v 2.279 c 0,2.623 -1.745,3.738 -4.759,3.738 -2.576,0 -4.464,-0.865 -4.464,-2.467 v -0.878 h -5.35 v 0.675 c 0,5.448 5.197,7.288 9.861,7.288 5.542,0 10.646,-1.84 10.646,-7.915 v -12.095 c 0,-1.116 0.143,-4.819 0.439,-5.353 h -5.887 c -0.095,0.391 -0.19,1.9 -0.238,2.291 h -0.093 c -2.196,-2.291 -4.084,-2.778 -7.289,-2.778 -5.15,0 -8.652,2.826 -8.652,7.537 m 15.786,2.136 v 1.211 h -5.828 c -2.527,0 -4.177,-0.867 -4.177,-3.051 0,-2.088 1.698,-3.167 4.474,-3.167 4.759,0 5.531,2.337 5.531,5.007"
         style="fill:#ffffff;fill-opacity:1;fill-rule:nonzero;stroke:none"
         id="path420"
         inkscape:label="a" /><path
         d="m 1103.914,1560.518 h 5.922 v -6.314 h -5.922 z m 0,-10.112 h 5.922 v -24.875 h -5.922 z"
         style="fill:#ffffff;fill-opacity:1;fill-rule:nonzero;stroke:none"
         id="path422"
         inkscape:label="i" /><path
         d="m 1116.981,1550.407 h 5.781 v -3.062 h 0.104 c 1.653,2.385 4.273,3.548 7.037,3.548 5.59,0 8.701,-3.488 8.701,-9.422 v -15.939 h -5.919 v 14.432 c 0,3.738 -1.616,5.732 -4.618,5.732 -3.262,0 -5.151,-1.994 -5.151,-6.219 v -13.945 h -5.935 z"
         style="fill:#ffffff;fill-opacity:1;fill-rule:nonzero;stroke:none"
         id="path424"
         inkscape:label="n" /></g></g></svg>
